<svg xmlns="http://www.w3.org/2000/svg" xmlns:xlink="http://www.w3.org/1999/xlink" contentStyleType="text/css" data-diagram-type="ACTIVITY" height="1402px" preserveAspectRatio="none" style="width:1651px;height:1402px;background:#FFFFFF;" version="1.1" viewBox="0 0 1651 1402" width="1651px" zoomAndPan="magnify"><defs/><g><rect fill="#F1F1F1" height="33.9688" rx="12.5" ry="12.5" style="stroke:#181818;stroke-width:0.5;" width="160.9707" x="754.9629" y="11"/><text fill="#000000" font-family="sans-serif" font-size="12" lengthAdjust="spacing" textLength="137.1563" x="768.7773" y="32.1387">createNecessaryFiles()</text><rect fill="#F1F1F1" height="33.9688" rx="12.5" ry="12.5" style="stroke:#181818;stroke-width:0.5;" width="106.2676" x="782.3145" y="64.9688"/><text fill="#000000" font-family="sans-serif" font-size="12" lengthAdjust="spacing" textLength="82.4531" x="796.1289" y="86.1074">user = login()</text><rect fill="#F1F1F1" height="33.9688" rx="12.5" ry="12.5" style="stroke:#181818;stroke-width:0.5;" width="93.6348" x="788.6309" y="118.9375"/><text fill="#000000" font-family="sans-serif" font-size="12" lengthAdjust="spacing" textLength="69.8203" x="802.4453" y="140.0762">menu(user)</text><rect fill="#F1F1F1" height="33.9688" rx="12.5" ry="12.5" style="stroke:#181818;stroke-width:0.5;" width="148.5605" x="761.168" y="172.9063"/><text fill="#000000" font-family="sans-serif" font-size="12" lengthAdjust="spacing" textLength="124.7461" x="774.9824" y="194.0449">option = getOption()</text><rect fill="#F1F1F1" height="33.9688" rx="12.5" ry="12.5" style="stroke:#181818;stroke-width:0.5;" width="148.5605" x="761.168" y="270.875"/><text fill="#000000" font-family="sans-serif" font-size="12" lengthAdjust="spacing" textLength="124.7461" x="774.9824" y="292.0137">option = getOption()</text><polygon fill="#F1F1F1" points="818.0566,324.8438,852.8398,324.8438,864.8398,336.8438,852.8398,348.8438,818.0566,348.8438,806.0566,336.8438,818.0566,324.8438" style="stroke:#181818;stroke-width:0.5;"/><text fill="#000000" font-family="sans-serif" font-size="11" lengthAdjust="spacing" textLength="34.7832" x="818.0566" y="340.6519">option</text><polygon fill="#F1F1F1" points="482.8596,384.4531,534.9216,384.4531,546.9216,396.4531,534.9216,408.4531,482.8596,408.4531,470.8596,396.4531,482.8596,384.4531" style="stroke:#181818;stroke-width:0.5;"/><text fill="#000000" font-family="sans-serif" font-size="11" lengthAdjust="spacing" textLength="52.062" x="482.8596" y="400.2612">type user</text><text fill="#000000" font-family="sans-serif" font-size="11" lengthAdjust="spacing" textLength="25.0723" x="445.7874" y="393.8589">User</text><text fill="#000000" font-family="sans-serif" font-size="11" lengthAdjust="spacing" textLength="35.9165" x="546.9216" y="393.8589">Owner</text><rect fill="#F1F1F1" height="33.9688" rx="12.5" ry="12.5" style="stroke:#181818;stroke-width:0.5;" width="82.7832" x="62.4482" y="466.8555"/><text fill="#000000" font-family="sans-serif" font-size="12" lengthAdjust="spacing" textLength="58.9688" x="76.2627" y="487.9941">listStore()</text><rect fill="#F1F1F1" height="33.9688" rx="12.5" ry="12.5" style="stroke:#181818;stroke-width:0.5;" width="149.1113" x="29.2842" y="535.8242"/><text fill="#000000" font-family="sans-serif" font-size="12" lengthAdjust="spacing" textLength="125.2969" x="43.0986" y="556.9629">store = selectStore()</text><rect fill="#F1F1F1" height="33.9688" rx="12.5" ry="12.5" style="stroke:#181818;stroke-width:0.5;" width="183.002" x="12.3389" y="653.1953"/><text fill="#000000" font-family="sans-serif" font-size="12" lengthAdjust="spacing" textLength="159.1875" x="26.1533" y="674.334">listElementsOfStore(store)</text><rect fill="#F1F1F1" height="33.9688" rx="12.5" ry="12.5" style="stroke:#181818;stroke-width:0.5;" width="185.6797" x="11" y="722.1641"/><text fill="#000000" font-family="sans-serif" font-size="12" lengthAdjust="spacing" textLength="161.8652" x="24.8145" y="743.3027">element = selectElement()</text><rect fill="#F1F1F1" height="33.9688" rx="12.5" ry="12.5" style="stroke:#181818;stroke-width:0.5;" width="153.3594" x="27.1602" y="791.1328"/><text fill="#000000" font-family="sans-serif" font-size="12" lengthAdjust="spacing" textLength="129.5449" x="40.9746" y="812.2715">seeElement(element)</text><rect fill="#F1F1F1" height="33.9688" rx="12.5" ry="12.5" style="stroke:#181818;stroke-width:0.5;" width="127.7539" x="39.9629" y="906.0586"/><text fill="#000000" font-family="sans-serif" font-size="12" lengthAdjust="spacing" textLength="103.9395" x="53.7773" y="927.1973">addToInventory()</text><rect fill="#F1F1F1" height="33.9688" rx="12.5" ry="12.5" style="stroke:#181818;stroke-width:0.5;" width="141.8574" x="32.9111" y="975.0273"/><text fill="#000000" font-family="sans-serif" font-size="12" lengthAdjust="spacing" textLength="118.043" x="46.7256" y="996.166">removeFromStore()</text><polygon fill="#F1F1F1" points="78.4722,857.6563,129.2075,857.6563,141.2075,869.6563,129.2075,881.6563,78.4722,881.6563,66.4722,869.6563,78.4722,857.6563" style="stroke:#181818;stroke-width:0.5;"/><text fill="#000000" font-family="sans-serif" font-size="11" lengthAdjust="spacing" textLength="19.0083" x="107.8398" y="891.8667">yes</text><text fill="#000000" font-family="sans-serif" font-size="11" lengthAdjust="spacing" textLength="50.7354" x="78.4722" y="873.4644">purchase</text><polygon fill="#F1F1F1" points="103.8398,1028.9961,115.8398,1040.9961,103.8398,1052.9961,91.8398,1040.9961,103.8398,1028.9961" style="stroke:#181818;stroke-width:0.5;"/><polygon fill="#F1F1F1" points="34.9905,604.793,172.6892,604.793,184.6892,616.793,172.6892,628.793,34.9905,628.793,22.9905,616.793,34.9905,604.793" style="stroke:#181818;stroke-width:0.5;"/><text fill="#000000" font-family="sans-serif" font-size="11" lengthAdjust="spacing" textLength="19.0083" x="107.8398" y="639.0034">yes</text><text fill="#000000" font-family="sans-serif" font-size="11" lengthAdjust="spacing" textLength="137.6987" x="34.9905" y="620.6011">areThereElements(store)</text><polygon fill="#F1F1F1" points="103.8398,1072.9961,115.8398,1084.9961,103.8398,1096.9961,91.8398,1084.9961,103.8398,1072.9961" style="stroke:#181818;stroke-width:0.5;"/><polygon fill="#F1F1F1" points="64.2925,418.4531,143.3872,418.4531,155.3872,430.4531,143.3872,442.4531,64.2925,442.4531,52.2925,430.4531,64.2925,418.4531" style="stroke:#181818;stroke-width:0.5;"/><text fill="#000000" font-family="sans-serif" font-size="11" lengthAdjust="spacing" textLength="19.0083" x="107.8398" y="452.6636">yes</text><text fill="#000000" font-family="sans-serif" font-size="11" lengthAdjust="spacing" textLength="79.0947" x="64.2925" y="434.2612">areThereStore</text><polygon fill="#F1F1F1" points="103.8398,1119.5508,115.8398,1131.5508,103.8398,1143.5508,91.8398,1131.5508,103.8398,1119.5508" style="stroke:#181818;stroke-width:0.5;"/><polygon fill="#F1F1F1" points="916.394,418.4531,995.4888,418.4531,1007.4888,430.4531,995.4888,442.4531,916.394,442.4531,904.394,430.4531,916.394,418.4531" style="stroke:#181818;stroke-width:0.5;"/><text fill="#000000" font-family="sans-serif" font-size="11" lengthAdjust="spacing" textLength="79.0947" x="916.394" y="434.2612">areThereStore</text><text fill="#000000" font-family="sans-serif" font-size="11" lengthAdjust="spacing" textLength="19.0083" x="885.3857" y="427.8589">yes</text><text fill="#000000" font-family="sans-serif" font-size="11" lengthAdjust="spacing" textLength="13.7017" x="1007.4888" y="427.8589">no</text><rect fill="#F1F1F1" height="33.9688" rx="12.5" ry="12.5" style="stroke:#181818;stroke-width:0.5;" width="82.7832" x="622.5186" y="452.4531"/><text fill="#000000" font-family="sans-serif" font-size="12" lengthAdjust="spacing" textLength="58.9688" x="636.333" y="473.5918">listStore()</text><polygon fill="#F1F1F1" points="646.5186,521.4219,681.3018,521.4219,693.3018,533.4219,681.3018,545.4219,646.5186,545.4219,634.5186,533.4219,646.5186,521.4219" style="stroke:#181818;stroke-width:0.5;"/><text fill="#000000" font-family="sans-serif" font-size="11" lengthAdjust="spacing" textLength="34.7832" x="646.5186" y="537.23">option</text><rect fill="#F1F1F1" height="33.9688" rx="12.5" ry="12.5" style="stroke:#181818;stroke-width:0.5;" width="204.1543" x="245.6123" y="581.0313"/><text fill="#000000" font-family="sans-serif" font-size="12" lengthAdjust="spacing" textLength="180.3398" x="259.4268" y="602.1699">newStore = createNewStore()</text><rect fill="#F1F1F1" height="33.9688" rx="12.5" ry="12.5" style="stroke:#181818;stroke-width:0.5;" width="217.8418" x="238.7686" y="698.4023"/><text fill="#000000" font-family="sans-serif" font-size="12" lengthAdjust="spacing" textLength="194.0273" x="252.583" y="719.541">createNewElementOf(newStore)</text><polygon fill="#F1F1F1" points="295.3643,650,400.0146,650,412.0146,662,400.0146,674,295.3643,674,283.3643,662,295.3643,650" style="stroke:#181818;stroke-width:0.5;"/><text fill="#000000" font-family="sans-serif" font-size="11" lengthAdjust="spacing" textLength="19.0083" x="351.6895" y="684.2104">yes</text><text fill="#000000" font-family="sans-serif" font-size="11" lengthAdjust="spacing" textLength="104.6504" x="295.3643" y="665.8081">createFirstElement</text><polygon fill="#F1F1F1" points="347.6895,756.7734,359.6895,768.7734,347.6895,780.7734,335.6895,768.7734,347.6895,756.7734" style="stroke:#181818;stroke-width:0.5;"/><rect fill="#F1F1F1" height="33.9688" rx="12.5" ry="12.5" style="stroke:#181818;stroke-width:0.5;" width="149.1113" x="662.7939" y="581.0313"/><text fill="#000000" font-family="sans-serif" font-size="12" lengthAdjust="spacing" textLength="125.2969" x="676.6084" y="602.1699">store = selectStore()</text><polygon fill="#F1F1F1" points="719.958,650,754.7412,650,766.7412,662,754.7412,674,719.958,674,707.958,662,719.958,650" style="stroke:#181818;stroke-width:0.5;"/><text fill="#000000" font-family="sans-serif" font-size="11" lengthAdjust="spacing" textLength="34.7832" x="719.958" y="665.8081">option</text><rect fill="#F1F1F1" height="33.9688" rx="12.5" ry="12.5" style="stroke:#181818;stroke-width:0.5;" width="191.6738" x="498.6104" y="709.6094"/><text fill="#000000" font-family="sans-serif" font-size="12" lengthAdjust="spacing" textLength="167.8594" x="512.4248" y="730.748">createNewElementOf(store)</text><rect fill="#F1F1F1" height="33.9688" rx="12.5" ry="12.5" style="stroke:#181818;stroke-width:0.5;" width="106.7363" x="789.8184" y="709.6094"/><text fill="#000000" font-family="sans-serif" font-size="12" lengthAdjust="spacing" textLength="82.9219" x="803.6328" y="730.748">listElements()</text><rect fill="#F1F1F1" height="33.9688" rx="12.5" ry="12.5" style="stroke:#181818;stroke-width:0.5;" width="185.6797" x="750.3467" y="778.5781"/><text fill="#000000" font-family="sans-serif" font-size="12" lengthAdjust="spacing" textLength="161.8652" x="764.1611" y="799.7168">element = selectElement()</text><rect fill="#F1F1F1" height="33.9688" rx="12.5" ry="12.5" style="stroke:#181818;stroke-width:0.5;" width="153.3594" x="766.5068" y="845.1016"/><text fill="#000000" font-family="sans-serif" font-size="12" lengthAdjust="spacing" textLength="129.5449" x="780.3213" y="866.2402">seeElement(element)</text><polygon fill="#F1F1F1" points="825.7949,914.0703,860.5781,914.0703,872.5781,926.0703,860.5781,938.0703,825.7949,938.0703,813.7949,926.0703,825.7949,914.0703" style="stroke:#181818;stroke-width:0.5;"/><text fill="#000000" font-family="sans-serif" font-size="11" lengthAdjust="spacing" textLength="34.7832" x="825.7949" y="929.8784">option</text><rect fill="#F1F1F1" height="33.9688" rx="12.5" ry="12.5" style="stroke:#181818;stroke-width:0.5;" width="125.1406" x="710.2842" y="973.6797"/><text fill="#000000" font-family="sans-serif" font-size="12" lengthAdjust="spacing" textLength="101.3262" x="724.0986" y="994.8184">updateElement()</text><rect fill="#F1F1F1" height="33.9688" rx="12.5" ry="12.5" style="stroke:#181818;stroke-width:0.5;" width="120.6641" x="855.4248" y="973.6797"/><text fill="#000000" font-family="sans-serif" font-size="12" lengthAdjust="spacing" textLength="96.8496" x="869.2393" y="994.8184">deleteElement()</text><polygon fill="#F1F1F1" points="843.1865,1106.9961,843.1865,1106.9961,855.1865,1118.9961,843.1865,1130.9961,843.1865,1130.9961,831.1865,1118.9961,843.1865,1106.9961" style="stroke:#181818;stroke-width:0.5;"/><polygon fill="#F1F1F1" points="737.3496,1153.5508,737.3496,1153.5508,749.3496,1165.5508,737.3496,1177.5508,737.3496,1177.5508,725.3496,1165.5508,737.3496,1153.5508" style="stroke:#181818;stroke-width:0.5;"/><rect fill="#F1F1F1" height="33.9688" rx="12.5" ry="12.5" style="stroke:#181818;stroke-width:0.5;" width="102.9629" x="996.0889" y="581.0313"/><text fill="#000000" font-family="sans-serif" font-size="12" lengthAdjust="spacing" textLength="79.1484" x="1009.9033" y="602.1699">deleteStore()</text><polygon fill="#F1F1F1" points="663.9102,1187.5508,663.9102,1187.5508,675.9102,1199.5508,663.9102,1211.5508,663.9102,1211.5508,651.9102,1199.5508,663.9102,1187.5508" style="stroke:#181818;stroke-width:0.5;"/><rect fill="#F1F1F1" height="33.9688" rx="12.5" ry="12.5" style="stroke:#181818;stroke-width:0.5;" width="204.1543" x="1115.8955" y="500.8555"/><text fill="#000000" font-family="sans-serif" font-size="12" lengthAdjust="spacing" textLength="180.3398" x="1129.71" y="521.9941">newStore = createNewStore()</text><rect fill="#F1F1F1" height="33.9688" rx="12.5" ry="12.5" style="stroke:#181818;stroke-width:0.5;" width="217.8418" x="1109.0518" y="618.2266"/><text fill="#000000" font-family="sans-serif" font-size="12" lengthAdjust="spacing" textLength="194.0273" x="1122.8662" y="639.3652">createNewElementOf(newStore)</text><polygon fill="#F1F1F1" points="1165.6475,569.8242,1270.2979,569.8242,1282.2979,581.8242,1270.2979,593.8242,1165.6475,593.8242,1153.6475,581.8242,1165.6475,569.8242" style="stroke:#181818;stroke-width:0.5;"/><text fill="#000000" font-family="sans-serif" font-size="11" lengthAdjust="spacing" textLength="19.0083" x="1221.9727" y="604.0347">yes</text><text fill="#000000" font-family="sans-serif" font-size="11" lengthAdjust="spacing" textLength="104.6504" x="1165.6475" y="585.6323">createFirstElement</text><polygon fill="#F1F1F1" points="1217.9727,676.5977,1229.9727,688.5977,1217.9727,700.5977,1205.9727,688.5977,1217.9727,676.5977" style="stroke:#181818;stroke-width:0.5;"/><polygon fill="#F1F1F1" points="1188.4182,452.4531,1247.5271,452.4531,1259.5271,464.4531,1247.5271,476.4531,1188.4182,476.4531,1176.4182,464.4531,1188.4182,452.4531" style="stroke:#181818;stroke-width:0.5;"/><text fill="#000000" font-family="sans-serif" font-size="11" lengthAdjust="spacing" textLength="19.0083" x="1221.9727" y="486.6636">yes</text><text fill="#000000" font-family="sans-serif" font-size="11" lengthAdjust="spacing" textLength="59.1089" x="1188.4182" y="468.2612">createFirst</text><polygon fill="#F1F1F1" points="1217.9727,725,1229.9727,737,1217.9727,749,1205.9727,737,1217.9727,725" style="stroke:#181818;stroke-width:0.5;"/><polygon fill="#F1F1F1" points="955.9414,1217.5508,967.9414,1229.5508,955.9414,1241.5508,943.9414,1229.5508,955.9414,1217.5508" style="stroke:#181818;stroke-width:0.5;"/><polygon fill="#F1F1F1" points="508.8906,1247.5508,520.8906,1259.5508,508.8906,1271.5508,496.8906,1259.5508,508.8906,1247.5508" style="stroke:#181818;stroke-width:0.5;"/><rect fill="#F1F1F1" height="33.9688" rx="12.5" ry="12.5" style="stroke:#181818;stroke-width:0.5;" width="108.1191" x="1407.6738" y="481.2578"/><text fill="#000000" font-family="sans-serif" font-size="12" lengthAdjust="spacing" textLength="84.3047" x="1421.4883" y="502.3965">listInventory()</text><rect fill="#F1F1F1" height="33.9688" rx="12.5" ry="12.5" style="stroke:#181818;stroke-width:0.5;" width="185.6797" x="1368.8936" y="550.2266"/><text fill="#000000" font-family="sans-serif" font-size="12" lengthAdjust="spacing" textLength="161.8652" x="1382.708" y="571.3652">element = selectElement()</text><rect fill="#F1F1F1" height="33.9688" rx="12.5" ry="12.5" style="stroke:#181818;stroke-width:0.5;" width="153.3594" x="1385.0537" y="619.1953"/><text fill="#000000" font-family="sans-serif" font-size="12" lengthAdjust="spacing" textLength="129.5449" x="1398.8682" y="640.334">seeElement(element)</text><polygon fill="#F1F1F1" points="1406.916,432.8555,1516.5508,432.8555,1528.5508,444.8555,1516.5508,456.8555,1406.916,456.8555,1394.916,444.8555,1406.916,432.8555" style="stroke:#181818;stroke-width:0.5;"/><text fill="#000000" font-family="sans-serif" font-size="11" lengthAdjust="spacing" textLength="19.0083" x="1465.7334" y="467.0659">yes</text><text fill="#000000" font-family="sans-serif" font-size="11" lengthAdjust="spacing" textLength="109.6348" x="1406.916" y="448.6636">areThereElements()</text><polygon fill="#F1F1F1" points="1461.7334,677.5664,1473.7334,689.5664,1461.7334,701.5664,1449.7334,689.5664,1461.7334,677.5664" style="stroke:#181818;stroke-width:0.5;"/><polygon fill="#F1F1F1" points="1435.7024,384.4531,1487.7644,384.4531,1499.7644,396.4531,1487.7644,408.4531,1435.7024,408.4531,1423.7024,396.4531,1435.7024,384.4531" style="stroke:#181818;stroke-width:0.5;"/><text fill="#000000" font-family="sans-serif" font-size="11" lengthAdjust="spacing" textLength="25.0723" x="1465.7334" y="418.6636">User</text><text fill="#000000" font-family="sans-serif" font-size="11" lengthAdjust="spacing" textLength="52.062" x="1435.7024" y="400.2612">type user</text><polygon fill="#F1F1F1" points="1461.7334,725.9688,1473.7334,737.9688,1461.7334,749.9688,1449.7334,737.9688,1461.7334,725.9688" style="stroke:#181818;stroke-width:0.5;"/><polygon fill="#F1F1F1" points="835.4482,1281.5508,835.4482,1281.5508,847.4482,1293.5508,835.4482,1305.5508,835.4482,1305.5508,823.4482,1293.5508,835.4482,1281.5508" style="stroke:#181818;stroke-width:0.5;"/><polygon fill="#F1F1F1" points="835.4482,226.875,847.4482,238.875,835.4482,250.875,823.4482,238.875,835.4482,226.875" style="stroke:#181818;stroke-width:0.5;"/><polygon fill="#F1F1F1" points="797.0852,1325.5508,873.8113,1325.5508,885.8113,1337.5508,873.8113,1349.5508,797.0852,1349.5508,785.0852,1337.5508,797.0852,1325.5508" style="stroke:#181818;stroke-width:0.5;"/><text fill="#000000" font-family="sans-serif" font-size="11" lengthAdjust="spacing" textLength="76.7261" x="797.0852" y="1341.3589">option != quit</text><ellipse cx="835.4482" cy="1380.5508" fill="#FFFFFF" fill-opacity="0.00000" rx="11" ry="11" style="stroke:#222222;stroke-width:1;"/><ellipse cx="835.4482" cy="1380.5508" fill="#222222" rx="6" ry="6" style="stroke:#222222;stroke-width:1;"/><line style="stroke:#181818;stroke-width:1;" x1="835.4482" x2="835.4482" y1="44.9688" y2="64.9688"/><polygon fill="#181818" points="831.4482,54.9688,835.4482,64.9688,839.4482,54.9688,835.4482,58.9688" style="stroke:#181818;stroke-width:1;"/><line style="stroke:#181818;stroke-width:1;" x1="835.4482" x2="835.4482" y1="98.9375" y2="118.9375"/><polygon fill="#181818" points="831.4482,108.9375,835.4482,118.9375,839.4482,108.9375,835.4482,112.9375" style="stroke:#181818;stroke-width:1;"/><line style="stroke:#181818;stroke-width:1;" x1="835.4482" x2="835.4482" y1="152.9063" y2="172.9063"/><polygon fill="#181818" points="831.4482,162.9063,835.4482,172.9063,839.4482,162.9063,835.4482,166.9063" style="stroke:#181818;stroke-width:1;"/><line style="stroke:#181818;stroke-width:1;" x1="103.8398" x2="103.8398" y1="500.8242" y2="535.8242"/><polygon fill="#181818" points="99.8398,525.8242,103.8398,535.8242,107.8398,525.8242,103.8398,529.8242" style="stroke:#181818;stroke-width:1;"/><line style="stroke:#181818;stroke-width:1;" x1="103.8398" x2="103.8398" y1="687.1641" y2="722.1641"/><polygon fill="#181818" points="99.8398,712.1641,103.8398,722.1641,107.8398,712.1641,103.8398,716.1641" style="stroke:#181818;stroke-width:1;"/><line style="stroke:#181818;stroke-width:1;" x1="103.8398" x2="103.8398" y1="756.1328" y2="791.1328"/><polygon fill="#181818" points="99.8398,781.1328,103.8398,791.1328,107.8398,781.1328,103.8398,785.1328" style="stroke:#181818;stroke-width:1;"/><line style="stroke:#181818;stroke-width:1;" x1="103.8398" x2="103.8398" y1="940.0273" y2="975.0273"/><polygon fill="#181818" points="99.8398,965.0273,103.8398,975.0273,107.8398,965.0273,103.8398,969.0273" style="stroke:#181818;stroke-width:1;"/><line style="stroke:#181818;stroke-width:1;" x1="103.8398" x2="103.8398" y1="881.6563" y2="906.0586"/><polygon fill="#181818" points="99.8398,896.0586,103.8398,906.0586,107.8398,896.0586,103.8398,900.0586" style="stroke:#181818;stroke-width:1;"/><line style="stroke:#181818;stroke-width:1;" x1="141.2075" x2="184.7686" y1="869.6563" y2="869.6563"/><polygon fill="#181818" points="180.7686,947.5273,184.7686,957.5273,188.7686,947.5273,184.7686,951.5273" style="stroke:#181818;stroke-width:1;"/><line style="stroke:#181818;stroke-width:1;" x1="184.7686" x2="184.7686" y1="869.6563" y2="1040.9961"/><line style="stroke:#181818;stroke-width:1;" x1="184.7686" x2="115.8398" y1="1040.9961" y2="1040.9961"/><polygon fill="#181818" points="125.8398,1036.9961,115.8398,1040.9961,125.8398,1044.9961,121.8398,1040.9961" style="stroke:#181818;stroke-width:1;"/><line style="stroke:#181818;stroke-width:1;" x1="103.8398" x2="103.8398" y1="1008.9961" y2="1028.9961"/><polygon fill="#181818" points="99.8398,1018.9961,103.8398,1028.9961,107.8398,1018.9961,103.8398,1022.9961" style="stroke:#181818;stroke-width:1;"/><line style="stroke:#181818;stroke-width:1;" x1="103.8398" x2="103.8398" y1="825.1016" y2="857.6563"/><polygon fill="#181818" points="99.8398,847.6563,103.8398,857.6563,107.8398,847.6563,103.8398,851.6563" style="stroke:#181818;stroke-width:1;"/><line style="stroke:#181818;stroke-width:1;" x1="103.8398" x2="103.8398" y1="628.793" y2="653.1953"/><polygon fill="#181818" points="99.8398,643.1953,103.8398,653.1953,107.8398,643.1953,103.8398,647.1953" style="stroke:#181818;stroke-width:1;"/><line style="stroke:#181818;stroke-width:1;" x1="184.6892" x2="206.7686" y1="616.793" y2="616.793"/><polygon fill="#181818" points="202.7686,844.0742,206.7686,854.0742,210.7686,844.0742,206.7686,848.0742" style="stroke:#181818;stroke-width:1;"/><line style="stroke:#181818;stroke-width:1;" x1="206.7686" x2="206.7686" y1="616.793" y2="1084.9961"/><line style="stroke:#181818;stroke-width:1;" x1="206.7686" x2="115.8398" y1="1084.9961" y2="1084.9961"/><polygon fill="#181818" points="125.8398,1080.9961,115.8398,1084.9961,125.8398,1088.9961,121.8398,1084.9961" style="stroke:#181818;stroke-width:1;"/><line style="stroke:#181818;stroke-width:1;" x1="103.8398" x2="103.8398" y1="1052.9961" y2="1072.9961"/><polygon fill="#181818" points="99.8398,1062.9961,103.8398,1072.9961,107.8398,1062.9961,103.8398,1066.9961" style="stroke:#181818;stroke-width:1;"/><line style="stroke:#181818;stroke-width:1;" x1="103.8398" x2="103.8398" y1="569.793" y2="604.793"/><polygon fill="#181818" points="99.8398,594.793,103.8398,604.793,107.8398,594.793,103.8398,598.793" style="stroke:#181818;stroke-width:1;"/><line style="stroke:#181818;stroke-width:1;" x1="103.8398" x2="103.8398" y1="442.4531" y2="466.8555"/><polygon fill="#181818" points="99.8398,456.8555,103.8398,466.8555,107.8398,456.8555,103.8398,460.8555" style="stroke:#181818;stroke-width:1;"/><line style="stroke:#181818;stroke-width:1;" x1="155.3872" x2="224.7686" y1="430.4531" y2="430.4531"/><polygon fill="#181818" points="220.7686,777.5508,224.7686,787.5508,228.7686,777.5508,224.7686,781.5508" style="stroke:#181818;stroke-width:1;"/><line style="stroke:#181818;stroke-width:1;" x1="224.7686" x2="224.7686" y1="430.4531" y2="1131.5508"/><line style="stroke:#181818;stroke-width:1;" x1="224.7686" x2="115.8398" y1="1131.5508" y2="1131.5508"/><polygon fill="#181818" points="125.8398,1127.5508,115.8398,1131.5508,125.8398,1135.5508,121.8398,1131.5508" style="stroke:#181818;stroke-width:1;"/><line style="stroke:#181818;stroke-width:1;" x1="103.8398" x2="103.8398" y1="1096.9961" y2="1119.5508"/><polygon fill="#181818" points="99.8398,1109.5508,103.8398,1119.5508,107.8398,1109.5508,103.8398,1113.5508" style="stroke:#181818;stroke-width:1;"/><line style="stroke:#181818;stroke-width:1;" x1="347.6895" x2="347.6895" y1="674" y2="698.4023"/><polygon fill="#181818" points="343.6895,688.4023,347.6895,698.4023,351.6895,688.4023,347.6895,692.4023" style="stroke:#181818;stroke-width:1;"/><line style="stroke:#181818;stroke-width:1;" x1="412.0146" x2="466.6104" y1="662" y2="662"/><polygon fill="#181818" points="462.6104,705.3867,466.6104,715.3867,470.6104,705.3867,466.6104,709.3867" style="stroke:#181818;stroke-width:1;"/><line style="stroke:#181818;stroke-width:1;" x1="466.6104" x2="466.6104" y1="662" y2="768.7734"/><line style="stroke:#181818;stroke-width:1;" x1="466.6104" x2="359.6895" y1="768.7734" y2="768.7734"/><polygon fill="#181818" points="369.6895,764.7734,359.6895,768.7734,369.6895,772.7734,365.6895,768.7734" style="stroke:#181818;stroke-width:1;"/><line style="stroke:#181818;stroke-width:1;" x1="347.6895" x2="347.6895" y1="732.3711" y2="756.7734"/><polygon fill="#181818" points="343.6895,746.7734,347.6895,756.7734,351.6895,746.7734,347.6895,750.7734" style="stroke:#181818;stroke-width:1;"/><line style="stroke:#181818;stroke-width:1;" x1="347.6895" x2="347.6895" y1="615" y2="650"/><polygon fill="#181818" points="343.6895,640,347.6895,650,351.6895,640,347.6895,644" style="stroke:#181818;stroke-width:1;"/><line style="stroke:#181818;stroke-width:1;" x1="843.1865" x2="843.1865" y1="743.5781" y2="778.5781"/><polygon fill="#181818" points="839.1865,768.5781,843.1865,778.5781,847.1865,768.5781,843.1865,772.5781" style="stroke:#181818;stroke-width:1;"/><line style="stroke:#181818;stroke-width:1;" x1="843.1865" x2="843.1865" y1="812.5469" y2="845.1016"/><polygon fill="#181818" points="839.1865,835.1016,843.1865,845.1016,847.1865,835.1016,843.1865,839.1016" style="stroke:#181818;stroke-width:1;"/><line style="stroke:#181818;stroke-width:1;" x1="813.7949" x2="772.8545" y1="926.0703" y2="926.0703"/><line style="stroke:#181818;stroke-width:1;" x1="772.8545" x2="772.8545" y1="926.0703" y2="973.6797"/><polygon fill="#181818" points="768.8545,963.6797,772.8545,973.6797,776.8545,963.6797,772.8545,967.6797" style="stroke:#181818;stroke-width:1;"/><text fill="#000000" font-family="sans-serif" font-size="11" lengthAdjust="spacing" textLength="38.7578" x="772.8545" y="953.6831">update</text><line style="stroke:#181818;stroke-width:1;" x1="872.5781" x2="915.7568" y1="926.0703" y2="926.0703"/><line style="stroke:#181818;stroke-width:1;" x1="915.7568" x2="915.7568" y1="926.0703" y2="973.6797"/><polygon fill="#181818" points="911.7568,963.6797,915.7568,973.6797,919.7568,963.6797,915.7568,967.6797" style="stroke:#181818;stroke-width:1;"/><text fill="#000000" font-family="sans-serif" font-size="11" lengthAdjust="spacing" textLength="34.6543" x="915.7568" y="953.6831">delete</text><line style="stroke:#181818;stroke-width:1;" x1="772.8545" x2="772.8545" y1="1007.6484" y2="1118.9961"/><line style="stroke:#181818;stroke-width:1;" x1="772.8545" x2="831.1865" y1="1118.9961" y2="1118.9961"/><polygon fill="#181818" points="821.1865,1114.9961,831.1865,1118.9961,821.1865,1122.9961,825.1865,1118.9961" style="stroke:#181818;stroke-width:1;"/><line style="stroke:#181818;stroke-width:1;" x1="915.7568" x2="915.7568" y1="1007.6484" y2="1118.9961"/><line style="stroke:#181818;stroke-width:1;" x1="915.7568" x2="855.1865" y1="1118.9961" y2="1118.9961"/><polygon fill="#181818" points="865.1865,1114.9961,855.1865,1118.9961,865.1865,1122.9961,861.1865,1118.9961" style="stroke:#181818;stroke-width:1;"/><line style="stroke:#181818;stroke-width:1;" x1="843.1865" x2="843.1865" y1="879.0703" y2="914.0703"/><polygon fill="#181818" points="839.1865,904.0703,843.1865,914.0703,847.1865,904.0703,843.1865,908.0703" style="stroke:#181818;stroke-width:1;"/><line style="stroke:#181818;stroke-width:1;" x1="707.958" x2="594.4473" y1="662" y2="662"/><line style="stroke:#181818;stroke-width:1;" x1="594.4473" x2="594.4473" y1="662" y2="709.6094"/><polygon fill="#181818" points="590.4473,699.6094,594.4473,709.6094,598.4473,699.6094,594.4473,703.6094" style="stroke:#181818;stroke-width:1;"/><text fill="#000000" font-family="sans-serif" font-size="11" lengthAdjust="spacing" textLength="70.3452" x="594.4473" y="689.6128">Add element</text><line style="stroke:#181818;stroke-width:1;" x1="766.7412" x2="843.1865" y1="662" y2="662"/><line style="stroke:#181818;stroke-width:1;" x1="843.1865" x2="843.1865" y1="662" y2="709.6094"/><polygon fill="#181818" points="839.1865,699.6094,843.1865,709.6094,847.1865,699.6094,843.1865,703.6094" style="stroke:#181818;stroke-width:1;"/><text fill="#000000" font-family="sans-serif" font-size="11" lengthAdjust="spacing" textLength="73.8149" x="843.1865" y="689.6128">List elements</text><line style="stroke:#181818;stroke-width:1;" x1="594.4473" x2="594.4473" y1="743.5781" y2="1165.5508"/><line style="stroke:#181818;stroke-width:1;" x1="594.4473" x2="725.3496" y1="1165.5508" y2="1165.5508"/><polygon fill="#181818" points="715.3496,1161.5508,725.3496,1165.5508,715.3496,1169.5508,719.3496,1165.5508" style="stroke:#181818;stroke-width:1;"/><line style="stroke:#181818;stroke-width:1;" x1="843.1865" x2="843.1865" y1="1130.9961" y2="1165.5508"/><line style="stroke:#181818;stroke-width:1;" x1="843.1865" x2="749.3496" y1="1165.5508" y2="1165.5508"/><polygon fill="#181818" points="759.3496,1161.5508,749.3496,1165.5508,759.3496,1169.5508,755.3496,1165.5508" style="stroke:#181818;stroke-width:1;"/><line style="stroke:#181818;stroke-width:1;" x1="737.3496" x2="737.3496" y1="615" y2="650"/><polygon fill="#181818" points="733.3496,640,737.3496,650,741.3496,640,737.3496,644" style="stroke:#181818;stroke-width:1;"/><line style="stroke:#181818;stroke-width:1;" x1="634.5186" x2="347.6895" y1="533.4219" y2="533.4219"/><line style="stroke:#181818;stroke-width:1;" x1="347.6895" x2="347.6895" y1="533.4219" y2="581.0313"/><polygon fill="#181818" points="343.6895,571.0313,347.6895,581.0313,351.6895,571.0313,347.6895,575.0313" style="stroke:#181818;stroke-width:1;"/><text fill="#000000" font-family="sans-serif" font-size="11" lengthAdjust="spacing" textLength="21.4897" x="347.6895" y="561.0347">Add</text><line style="stroke:#181818;stroke-width:1;" x1="693.3018" x2="1047.5703" y1="533.4219" y2="533.4219"/><line style="stroke:#181818;stroke-width:1;" x1="1047.5703" x2="1047.5703" y1="533.4219" y2="581.0313"/><polygon fill="#181818" points="1043.5703,571.0313,1047.5703,581.0313,1051.5703,571.0313,1047.5703,575.0313" style="stroke:#181818;stroke-width:1;"/><text fill="#000000" font-family="sans-serif" font-size="11" lengthAdjust="spacing" textLength="36.1421" x="1047.5703" y="561.0347">Delete</text><line style="stroke:#181818;stroke-width:1;" x1="737.3496" x2="737.3496" y1="533.4219" y2="581.0313"/><polygon fill="#181818" points="733.3496,571.0313,737.3496,581.0313,741.3496,571.0313,737.3496,575.0313" style="stroke:#181818;stroke-width:1;"/><text fill="#000000" font-family="sans-serif" font-size="11" lengthAdjust="spacing" textLength="33.9346" x="737.3496" y="556.0347">Select</text><line style="stroke:#181818;stroke-width:1;" x1="347.6895" x2="347.6895" y1="780.7734" y2="1199.5508"/><line style="stroke:#181818;stroke-width:1;" x1="347.6895" x2="651.9102" y1="1199.5508" y2="1199.5508"/><polygon fill="#181818" points="641.9102,1195.5508,651.9102,1199.5508,641.9102,1203.5508,645.9102,1199.5508" style="stroke:#181818;stroke-width:1;"/><line style="stroke:#181818;stroke-width:1;" x1="1047.5703" x2="1047.5703" y1="615" y2="1199.5508"/><line style="stroke:#181818;stroke-width:1;" x1="1047.5703" x2="675.9102" y1="1199.5508" y2="1199.5508"/><polygon fill="#181818" points="685.9102,1195.5508,675.9102,1199.5508,685.9102,1203.5508,681.9102,1199.5508" style="stroke:#181818;stroke-width:1;"/><line style="stroke:#181818;stroke-width:1;" x1="737.3496" x2="737.3496" y1="1177.5508" y2="1199.5508"/><polygon fill="#181818" points="733.3496,1189.5508,737.3496,1199.5508,741.3496,1189.5508,737.3496,1193.5508" style="stroke:#181818;stroke-width:1;"/><line style="stroke:#181818;stroke-width:1;" x1="663.9102" x2="663.9102" y1="486.4219" y2="521.4219"/><polygon fill="#181818" points="659.9102,511.4219,663.9102,521.4219,667.9102,511.4219,663.9102,515.4219" style="stroke:#181818;stroke-width:1;"/><line style="stroke:#181818;stroke-width:1;" x1="1217.9727" x2="1217.9727" y1="593.8242" y2="618.2266"/><polygon fill="#181818" points="1213.9727,608.2266,1217.9727,618.2266,1221.9727,608.2266,1217.9727,612.2266" style="stroke:#181818;stroke-width:1;"/><line style="stroke:#181818;stroke-width:1;" x1="1282.2979" x2="1336.8936" y1="581.8242" y2="581.8242"/><polygon fill="#181818" points="1332.8936,625.2109,1336.8936,635.2109,1340.8936,625.2109,1336.8936,629.2109" style="stroke:#181818;stroke-width:1;"/><line style="stroke:#181818;stroke-width:1;" x1="1336.8936" x2="1336.8936" y1="581.8242" y2="688.5977"/><line style="stroke:#181818;stroke-width:1;" x1="1336.8936" x2="1229.9727" y1="688.5977" y2="688.5977"/><polygon fill="#181818" points="1239.9727,684.5977,1229.9727,688.5977,1239.9727,692.5977,1235.9727,688.5977" style="stroke:#181818;stroke-width:1;"/><line style="stroke:#181818;stroke-width:1;" x1="1217.9727" x2="1217.9727" y1="652.1953" y2="676.5977"/><polygon fill="#181818" points="1213.9727,666.5977,1217.9727,676.5977,1221.9727,666.5977,1217.9727,670.5977" style="stroke:#181818;stroke-width:1;"/><line style="stroke:#181818;stroke-width:1;" x1="1217.9727" x2="1217.9727" y1="534.8242" y2="569.8242"/><polygon fill="#181818" points="1213.9727,559.8242,1217.9727,569.8242,1221.9727,559.8242,1217.9727,563.8242" style="stroke:#181818;stroke-width:1;"/><line style="stroke:#181818;stroke-width:1;" x1="1217.9727" x2="1217.9727" y1="476.4531" y2="500.8555"/><polygon fill="#181818" points="1213.9727,490.8555,1217.9727,500.8555,1221.9727,490.8555,1217.9727,494.8555" style="stroke:#181818;stroke-width:1;"/><line style="stroke:#181818;stroke-width:1;" x1="1259.5271" x2="1354.8936" y1="464.4531" y2="464.4531"/><polygon fill="#181818" points="1350.8936,590.7266,1354.8936,600.7266,1358.8936,590.7266,1354.8936,594.7266" style="stroke:#181818;stroke-width:1;"/><line style="stroke:#181818;stroke-width:1;" x1="1354.8936" x2="1354.8936" y1="464.4531" y2="737"/><line style="stroke:#181818;stroke-width:1;" x1="1354.8936" x2="1229.9727" y1="737" y2="737"/><polygon fill="#181818" points="1239.9727,733,1229.9727,737,1239.9727,741,1235.9727,737" style="stroke:#181818;stroke-width:1;"/><line style="stroke:#181818;stroke-width:1;" x1="1217.9727" x2="1217.9727" y1="700.5977" y2="725"/><polygon fill="#181818" points="1213.9727,715,1217.9727,725,1221.9727,715,1217.9727,719" style="stroke:#181818;stroke-width:1;"/><line style="stroke:#181818;stroke-width:1;" x1="904.394" x2="663.9102" y1="430.4531" y2="430.4531"/><line style="stroke:#181818;stroke-width:1;" x1="663.9102" x2="663.9102" y1="430.4531" y2="452.4531"/><polygon fill="#181818" points="659.9102,442.4531,663.9102,452.4531,667.9102,442.4531,663.9102,446.4531" style="stroke:#181818;stroke-width:1;"/><line style="stroke:#181818;stroke-width:1;" x1="1007.4888" x2="1217.9727" y1="430.4531" y2="430.4531"/><line style="stroke:#181818;stroke-width:1;" x1="1217.9727" x2="1217.9727" y1="430.4531" y2="452.4531"/><polygon fill="#181818" points="1213.9727,442.4531,1217.9727,452.4531,1221.9727,442.4531,1217.9727,446.4531" style="stroke:#181818;stroke-width:1;"/><line style="stroke:#181818;stroke-width:1;" x1="663.9102" x2="663.9102" y1="1211.5508" y2="1229.5508"/><line style="stroke:#181818;stroke-width:1;" x1="663.9102" x2="943.9414" y1="1229.5508" y2="1229.5508"/><polygon fill="#181818" points="933.9414,1225.5508,943.9414,1229.5508,933.9414,1233.5508,937.9414,1229.5508" style="stroke:#181818;stroke-width:1;"/><line style="stroke:#181818;stroke-width:1;" x1="1217.9727" x2="1217.9727" y1="749" y2="1229.5508"/><line style="stroke:#181818;stroke-width:1;" x1="1217.9727" x2="967.9414" y1="1229.5508" y2="1229.5508"/><polygon fill="#181818" points="977.9414,1225.5508,967.9414,1229.5508,977.9414,1233.5508,973.9414,1229.5508" style="stroke:#181818;stroke-width:1;"/><line style="stroke:#181818;stroke-width:1;" x1="470.8596" x2="103.8398" y1="396.4531" y2="396.4531"/><line style="stroke:#181818;stroke-width:1;" x1="103.8398" x2="103.8398" y1="396.4531" y2="418.4531"/><polygon fill="#181818" points="99.8398,408.4531,103.8398,418.4531,107.8398,408.4531,103.8398,412.4531" style="stroke:#181818;stroke-width:1;"/><line style="stroke:#181818;stroke-width:1;" x1="546.9216" x2="955.9414" y1="396.4531" y2="396.4531"/><line style="stroke:#181818;stroke-width:1;" x1="955.9414" x2="955.9414" y1="396.4531" y2="418.4531"/><polygon fill="#181818" points="951.9414,408.4531,955.9414,418.4531,959.9414,408.4531,955.9414,412.4531" style="stroke:#181818;stroke-width:1;"/><line style="stroke:#181818;stroke-width:1;" x1="103.8398" x2="103.8398" y1="1143.5508" y2="1259.5508"/><line style="stroke:#181818;stroke-width:1;" x1="103.8398" x2="496.8906" y1="1259.5508" y2="1259.5508"/><polygon fill="#181818" points="486.8906,1255.5508,496.8906,1259.5508,486.8906,1263.5508,490.8906,1259.5508" style="stroke:#181818;stroke-width:1;"/><line style="stroke:#181818;stroke-width:1;" x1="955.9414" x2="955.9414" y1="1241.5508" y2="1259.5508"/><line style="stroke:#181818;stroke-width:1;" x1="955.9414" x2="520.8906" y1="1259.5508" y2="1259.5508"/><polygon fill="#181818" points="530.8906,1255.5508,520.8906,1259.5508,530.8906,1263.5508,526.8906,1259.5508" style="stroke:#181818;stroke-width:1;"/><line style="stroke:#181818;stroke-width:1;" x1="1461.7334" x2="1461.7334" y1="515.2266" y2="550.2266"/><polygon fill="#181818" points="1457.7334,540.2266,1461.7334,550.2266,1465.7334,540.2266,1461.7334,544.2266" style="stroke:#181818;stroke-width:1;"/><line style="stroke:#181818;stroke-width:1;" x1="1461.7334" x2="1461.7334" y1="584.1953" y2="619.1953"/><polygon fill="#181818" points="1457.7334,609.1953,1461.7334,619.1953,1465.7334,609.1953,1461.7334,613.1953" style="stroke:#181818;stroke-width:1;"/><line style="stroke:#181818;stroke-width:1;" x1="1461.7334" x2="1461.7334" y1="456.8555" y2="481.2578"/><polygon fill="#181818" points="1457.7334,471.2578,1461.7334,481.2578,1465.7334,471.2578,1461.7334,475.2578" style="stroke:#181818;stroke-width:1;"/><line style="stroke:#181818;stroke-width:1;" x1="1528.5508" x2="1564.5732" y1="444.8555" y2="444.8555"/><polygon fill="#181818" points="1560.5732,557.2109,1564.5732,567.2109,1568.5732,557.2109,1564.5732,561.2109" style="stroke:#181818;stroke-width:1;"/><line style="stroke:#181818;stroke-width:1;" x1="1564.5732" x2="1564.5732" y1="444.8555" y2="689.5664"/><line style="stroke:#181818;stroke-width:1;" x1="1564.5732" x2="1473.7334" y1="689.5664" y2="689.5664"/><polygon fill="#181818" points="1483.7334,685.5664,1473.7334,689.5664,1483.7334,693.5664,1479.7334,689.5664" style="stroke:#181818;stroke-width:1;"/><line style="stroke:#181818;stroke-width:1;" x1="1461.7334" x2="1461.7334" y1="653.1641" y2="677.5664"/><polygon fill="#181818" points="1457.7334,667.5664,1461.7334,677.5664,1465.7334,667.5664,1461.7334,671.5664" style="stroke:#181818;stroke-width:1;"/><line style="stroke:#181818;stroke-width:1;" x1="1461.7334" x2="1461.7334" y1="408.4531" y2="432.8555"/><polygon fill="#181818" points="1457.7334,422.8555,1461.7334,432.8555,1465.7334,422.8555,1461.7334,426.8555" style="stroke:#181818;stroke-width:1;"/><line style="stroke:#181818;stroke-width:1;" x1="1499.7644" x2="1582.5732" y1="396.4531" y2="396.4531"/><polygon fill="#181818" points="1578.5732,557.2109,1582.5732,567.2109,1586.5732,557.2109,1582.5732,561.2109" style="stroke:#181818;stroke-width:1;"/><line style="stroke:#181818;stroke-width:1;" x1="1582.5732" x2="1582.5732" y1="396.4531" y2="737.9688"/><line style="stroke:#181818;stroke-width:1;" x1="1582.5732" x2="1473.7334" y1="737.9688" y2="737.9688"/><polygon fill="#181818" points="1483.7334,733.9688,1473.7334,737.9688,1483.7334,741.9688,1479.7334,737.9688" style="stroke:#181818;stroke-width:1;"/><line style="stroke:#181818;stroke-width:1;" x1="1461.7334" x2="1461.7334" y1="701.5664" y2="725.9688"/><polygon fill="#181818" points="1457.7334,715.9688,1461.7334,725.9688,1465.7334,715.9688,1461.7334,719.9688" style="stroke:#181818;stroke-width:1;"/><line style="stroke:#181818;stroke-width:1;" x1="806.0566" x2="508.8906" y1="336.8438" y2="336.8438"/><line style="stroke:#181818;stroke-width:1;" x1="508.8906" x2="508.8906" y1="336.8438" y2="384.4531"/><polygon fill="#181818" points="504.8906,374.4531,508.8906,384.4531,512.8906,374.4531,508.8906,378.4531" style="stroke:#181818;stroke-width:1;"/><text fill="#000000" font-family="sans-serif" font-size="11" lengthAdjust="spacing" textLength="35.0464" x="508.8906" y="364.4565">Stores</text><line style="stroke:#181818;stroke-width:1;" x1="864.8398" x2="1592.5732" y1="336.8438" y2="336.8438"/><line style="stroke:#181818;stroke-width:1;" x1="1592.5732" x2="1592.5732" y1="336.8438" y2="1293.5508"/><line style="stroke:#181818;stroke-width:1;" x1="1592.5732" x2="847.4482" y1="1293.5508" y2="1293.5508"/><polygon fill="#181818" points="857.4482,1289.5508,847.4482,1293.5508,857.4482,1297.5508,853.4482,1293.5508" style="stroke:#181818;stroke-width:1;"/><text fill="#000000" font-family="sans-serif" font-size="11" lengthAdjust="spacing" textLength="21.3232" x="1596.5732" y="340.6519">quit</text><line style="stroke:#181818;stroke-width:1;" x1="1461.7334" x2="1461.7334" y1="336.8438" y2="384.4531"/><polygon fill="#181818" points="1457.7334,374.4531,1461.7334,384.4531,1465.7334,374.4531,1461.7334,378.4531" style="stroke:#181818;stroke-width:1;"/><text fill="#000000" font-family="sans-serif" font-size="11" lengthAdjust="spacing" textLength="52.54" x="1461.7334" y="359.4565">Inventory</text><line style="stroke:#181818;stroke-width:1;" x1="508.8906" x2="508.8906" y1="1271.5508" y2="1293.5508"/><line style="stroke:#181818;stroke-width:1;" x1="508.8906" x2="823.4482" y1="1293.5508" y2="1293.5508"/><polygon fill="#181818" points="813.4482,1289.5508,823.4482,1293.5508,813.4482,1297.5508,817.4482,1293.5508" style="stroke:#181818;stroke-width:1;"/><line style="stroke:#181818;stroke-width:1;" x1="1461.7334" x2="1461.7334" y1="749.9688" y2="1293.5508"/><polygon fill="#181818" points="1457.7334,1283.5508,1461.7334,1293.5508,1465.7334,1283.5508,1461.7334,1287.5508" style="stroke:#181818;stroke-width:1;"/><line style="stroke:#181818;stroke-width:1;" x1="835.4482" x2="835.4482" y1="304.8438" y2="324.8438"/><polygon fill="#181818" points="831.4482,314.8438,835.4482,324.8438,839.4482,314.8438,835.4482,318.8438" style="stroke:#181818;stroke-width:1;"/><line style="stroke:#181818;stroke-width:1;" x1="835.4482" x2="835.4482" y1="250.875" y2="270.875"/><polygon fill="#181818" points="831.4482,260.875,835.4482,270.875,839.4482,260.875,835.4482,264.875" style="stroke:#181818;stroke-width:1;"/><line style="stroke:#181818;stroke-width:1;" x1="885.8113" x2="1625.8965" y1="1337.5508" y2="1337.5508"/><polygon fill="#181818" points="1621.8965,938.5391,1625.8965,928.5391,1629.8965,938.5391,1625.8965,934.5391" style="stroke:#181818;stroke-width:1;"/><line style="stroke:#181818;stroke-width:1;" x1="1625.8965" x2="1625.8965" y1="238.875" y2="1337.5508"/><line style="stroke:#181818;stroke-width:1;" x1="1625.8965" x2="847.4482" y1="238.875" y2="238.875"/><polygon fill="#181818" points="857.4482,234.875,847.4482,238.875,857.4482,242.875,853.4482,238.875" style="stroke:#181818;stroke-width:1;"/><line style="stroke:#181818;stroke-width:1;" x1="835.4482" x2="835.4482" y1="1305.5508" y2="1325.5508"/><polygon fill="#181818" points="831.4482,1315.5508,835.4482,1325.5508,839.4482,1315.5508,835.4482,1319.5508" style="stroke:#181818;stroke-width:1;"/><line style="stroke:#181818;stroke-width:1;" x1="835.4482" x2="835.4482" y1="206.875" y2="226.875"/><polygon fill="#181818" points="831.4482,216.875,835.4482,226.875,839.4482,216.875,835.4482,220.875" style="stroke:#181818;stroke-width:1;"/><line style="stroke:#181818;stroke-width:1;" x1="835.4482" x2="835.4482" y1="1349.5508" y2="1369.5508"/><polygon fill="#181818" points="831.4482,1359.5508,835.4482,1369.5508,839.4482,1359.5508,835.4482,1363.5508" style="stroke:#181818;stroke-width:1;"/><!--SRC=[tLR1ReCm3Btp5Taj_4Ad7YPjbIPDww7T1o0m9H9DM1AA-lTBC87IZH3GjCDo0kVPVdPi9nkIIaWql4CAIYNokcCbA1e_HXjIAv1aIqfnOXmbP-0rjMBpPtv5fPdW1d82lM-_BIoIK1cJ929cJOBifcgOJWj24HAtChlIH06X1oqag45g5yi9rTSAMcunqGLmGZ_izmZce8c4Om4IMbCEVhqtwjQ6b4pf5cif_WnHTjj4ew24r0- -PV1IWacULhJLZsUv37oSvZv7PsZWqQC5gD6Jx2nGhv82nv5s-XwuZQogPLgOWmeA1NqaMNOKh_nYZ0jvzV51l8IpkC1EYhCtptO1prWUXUzybq9fYsxVy3yhfgdolr_O3azPvYiL3isXAqtNqSrircnOYDunsPVQWXFjNNMg-vmw8giEwwRxszBrHRoW4vTaUvHnrqj- -6GkvdfryFLcYiKvKo7URaV3N2Uj7WihnyEQb8_JKLUPoMMO1X94ZGKn3Suo4z4oPwYnm9cfU4n6j1w1P9y3o3g2tfwOTeYJa8iu2fWPWJVP_nXFmNV9I887rzzxl_AY6Le_y2QQlNON3uZ0eH2MdS-QTKDsgClk7TaKvadgXWXvs1B4cjbQVG40]--></g></svg>